<svg width="18" height="24" viewBox="0 0 18 24" fill="none" xmlns="http://www.w3.org/2000/svg">
<mask id="path-1-inside-1_245_869" fill="white">
<path d="M7.54688 23.3359C5.21094 20.416 0 13.4531 0 9.5C0 4.73828 3.81836 0.875 8.625 0.875C13.3867 0.875 17.25 4.73828 17.25 9.5C17.25 13.4531 11.9941 20.416 9.6582 23.3359C9.11914 24.0098 8.08594 24.0098 7.54688 23.3359ZM8.625 12.375C10.1973 12.375 11.5 11.1172 11.5 9.5C11.5 7.92773 10.1973 6.625 8.625 6.625C7.00781 6.625 5.75 7.92773 5.75 9.5C5.75 11.1172 7.00781 12.375 8.625 12.375Z"/>
</mask>
<path d="M7.54688 23.3359C5.21094 20.416 0 13.4531 0 9.5C0 4.73828 3.81836 0.875 8.625 0.875C13.3867 0.875 17.25 4.73828 17.25 9.5C17.25 13.4531 11.9941 20.416 9.6582 23.3359C9.11914 24.0098 8.08594 24.0098 7.54688 23.3359ZM8.625 12.375C10.1973 12.375 11.5 11.1172 11.5 9.5C11.5 7.92773 10.1973 6.625 8.625 6.625C7.00781 6.625 5.75 7.92773 5.75 9.5C5.75 11.1172 7.00781 12.375 8.625 12.375Z" fill="#EBEFF2"/>
<path d="M9.10861 22.0865C7.96327 20.6549 6.13455 18.2577 4.60229 15.7597C3.83583 14.5101 3.16719 13.2734 2.69561 12.1467C2.21077 10.9885 2 10.0993 2 9.5H-2C-2 10.8773 -1.55941 12.3409 -0.994191 13.6912C-0.415722 15.0732 0.364361 16.5008 1.19263 17.8511C2.84982 20.5528 4.79454 23.0971 5.98514 24.5853L9.10861 22.0865ZM2 9.5C2 5.83605 4.92972 2.875 8.625 2.875V-1.125C2.707 -1.125 -2 3.64051 -2 9.5H2ZM8.625 2.875C12.2821 2.875 15.25 5.84285 15.25 9.5H19.25C19.25 3.63371 14.4913 -1.125 8.625 -1.125V2.875ZM15.25 9.5C15.25 10.096 15.0383 10.9831 14.5496 12.1415C14.0744 13.2678 13.4006 14.5045 12.6285 15.7544C11.0851 18.253 9.24505 20.6508 8.09647 22.0865L11.2199 24.5853C12.4073 23.1011 14.3631 20.5576 16.0316 17.8565C16.8655 16.5065 17.6517 15.0788 18.235 13.6965C18.8047 12.3462 19.25 10.8806 19.25 9.5H15.25ZM8.09647 22.0865C8.35805 21.7596 8.84702 21.7596 9.10861 22.0865L5.98514 24.5853C7.32485 26.26 9.88023 26.26 11.2199 24.5853L8.09647 22.0865ZM8.625 14.375C11.2814 14.375 13.5 12.2421 13.5 9.5H9.5C9.5 9.99229 9.11314 10.375 8.625 10.375V14.375ZM13.5 9.5C13.5 6.82316 11.3018 4.625 8.625 4.625V8.625C9.0927 8.625 9.5 9.0323 9.5 9.5H13.5ZM8.625 4.625C5.88291 4.625 3.75 6.8436 3.75 9.5H7.75C7.75 9.01186 8.13271 8.625 8.625 8.625V4.625ZM3.75 9.5C3.75 12.2218 5.90324 14.375 8.625 14.375V10.375C8.11238 10.375 7.75 10.0126 7.75 9.5H3.75Z" fill="#383838" mask="url(#path-1-inside-1_245_869)"/>
</svg>
