<svg width="36" height="34" viewBox="0 0 36 34" fill="none" xmlns="http://www.w3.org/2000/svg">
<g filter="url(#filter0_dd_12_217)">
<circle cx="18" cy="16" r="9" fill="#DB6868"/>
</g>
<path d="M22.5266 12.293C22.5821 12.2897 22.6331 12.3033 22.701 12.3215C22.9896 12.3988 23.1636 12.7003 23.1033 12.9934L21.5018 18.9701C21.3381 19.5814 20.4806 19.8611 19.5807 19.62C18.6808 19.3789 18.0781 18.7078 18.2418 18.0966C18.4011 17.5023 19.2631 17.2056 20.163 17.4467C20.3452 17.5137 20.5105 17.5762 20.6881 17.6602L21.5253 14.536L16.8374 14.6448L15.7773 18.6009C15.6136 19.2122 14.7561 19.492 13.8562 19.2508C12.9563 19.0097 12.3536 18.3387 12.5173 17.7274C12.6766 17.1331 13.5386 16.8364 14.4385 17.0775C14.6207 17.1445 14.786 17.207 14.9636 17.291L16.1511 12.8594C16.2148 12.6217 16.4222 12.4589 16.6657 12.4332L22.5266 12.293Z" fill="white"/>
<defs>
<filter id="filter0_dd_12_217" x="0" y="0" width="36" height="34" filterUnits="userSpaceOnUse" color-interpolation-filters="sRGB">
<feFlood flood-opacity="0" result="BackgroundImageFix"/>
<feColorMatrix in="SourceAlpha" type="matrix" values="0 0 0 0 0 0 0 0 0 0 0 0 0 0 0 0 0 0 127 0" result="hardAlpha"/>
<feOffset dx="3" dy="3"/>
<feGaussianBlur stdDeviation="3"/>
<feComposite in2="hardAlpha" operator="out"/>
<feColorMatrix type="matrix" values="0 0 0 0 0 0 0 0 0 0 0 0 0 0 0 0 0 0 0.25 0"/>
<feBlend mode="normal" in2="BackgroundImageFix" result="effect1_dropShadow_12_217"/>
<feColorMatrix in="SourceAlpha" type="matrix" values="0 0 0 0 0 0 0 0 0 0 0 0 0 0 0 0 0 0 127 0" result="hardAlpha"/>
<feOffset dx="-5" dy="-3"/>
<feGaussianBlur stdDeviation="2"/>
<feComposite in2="hardAlpha" operator="out"/>
<feColorMatrix type="matrix" values="0 0 0 0 1 0 0 0 0 1 0 0 0 0 1 0 0 0 0.25 0"/>
<feBlend mode="normal" in2="effect1_dropShadow_12_217" result="effect2_dropShadow_12_217"/>
<feBlend mode="normal" in="SourceGraphic" in2="effect2_dropShadow_12_217" result="shape"/>
</filter>
</defs>
</svg>
