<svg width="15" height="18" viewBox="0 0 15 18" fill="none" xmlns="http://www.w3.org/2000/svg">
<path d="M7.4375 7.625C5.63236 7.625 4.1875 6.18014 4.1875 4.375C4.1875 2.59798 5.63744 1.125 7.4375 1.125C9.20943 1.125 10.6875 2.60307 10.6875 4.375C10.6875 6.17506 9.21452 7.625 7.4375 7.625ZM9.09766 11.2188C11.7329 11.2188 13.875 13.3609 13.875 15.9961C13.875 16.0218 13.8662 16.0486 13.8377 16.076C13.8072 16.1053 13.763 16.125 13.7129 16.125H1.12891C1.08288 16.125 1.0538 16.1088 1.03499 16.09C1.01618 16.0712 1 16.0421 1 15.9961C1 13.3534 3.11642 11.2188 5.74414 11.2188H9.09766Z" fill="#EBEFF2" stroke="black" stroke-width="2"/>
</svg>
