<svg width="11" height="11" viewBox="0 0 11 11" fill="none" xmlns="http://www.w3.org/2000/svg">
<path d="M10.082 8.48047C10.4629 8.83203 10.4629 9.44727 10.082 9.79883C9.90625 9.97461 9.67188 10.0625 9.4375 10.0625C9.17383 10.0625 8.93945 9.97461 8.76367 9.79883L5.6875 6.72266L2.58203 9.79883C2.40625 9.97461 2.17188 10.0625 1.9375 10.0625C1.67383 10.0625 1.43945 9.97461 1.26367 9.79883C0.882812 9.44727 0.882812 8.83203 1.26367 8.48047L4.33984 5.375L1.26367 2.29883C0.882812 1.94727 0.882812 1.33203 1.26367 0.980469C1.61523 0.599609 2.23047 0.599609 2.58203 0.980469L5.6875 4.05664L8.76367 0.980469C9.11523 0.599609 9.73047 0.599609 10.082 0.980469C10.4629 1.33203 10.4629 1.94727 10.082 2.29883L7.00586 5.4043L10.082 8.48047Z" fill="black"/>
</svg>
