<svg width="139" height="139" viewBox="0 0 139 139" fill="none" xmlns="http://www.w3.org/2000/svg">
<circle cx="69.5" cy="69.5" r="69.5" fill="url(#paint0_linear_12_3031)"/>
<path d="M58 94C62.4516 93.2454 74.0839 92.1889 85 94" stroke="white" stroke-width="5" stroke-linecap="round"/>
<path d="M35.6875 63.8125C41 63.8125 45.375 68.1875 45.375 73.5C45.375 78.8516 41 83.1875 35.6875 83.1875C30.3359 83.1875 26 78.8516 26 73.5C26 68.1875 30.3359 63.8125 35.6875 63.8125ZM35.6875 80.6875C39.6328 80.6875 42.875 77.4844 42.875 73.5C42.875 69.5547 39.6328 66.3125 35.6875 66.3125C31.7031 66.3125 28.5 69.5547 28.5 73.5C28.5 77.4844 31.7031 80.6875 35.6875 80.6875ZM35.6875 68.5C38.4219 68.5 40.6875 70.7656 40.6875 73.5C40.6875 76.2734 38.4219 78.5 35.6875 78.5C32.9141 78.5 30.6875 76.2734 30.6875 73.5C30.6875 70.7656 32.9141 68.5 35.6875 68.5ZM35.6875 76C37.0547 76 38.1875 74.9062 38.1875 73.5C38.1875 72.1328 37.0547 71 35.6875 71C34.2812 71 33.1875 72.1328 33.1875 73.5C33.1875 74.9062 34.2812 76 35.6875 76Z" fill="white"/>
<path d="M107.688 63.8125C113 63.8125 117.375 68.1875 117.375 73.5C117.375 78.8516 113 83.1875 107.688 83.1875C102.336 83.1875 98 78.8516 98 73.5C98 68.1875 102.336 63.8125 107.688 63.8125ZM107.688 80.6875C111.633 80.6875 114.875 77.4844 114.875 73.5C114.875 69.5547 111.633 66.3125 107.688 66.3125C103.703 66.3125 100.5 69.5547 100.5 73.5C100.5 77.4844 103.703 80.6875 107.688 80.6875ZM107.688 68.5C110.422 68.5 112.688 70.7656 112.688 73.5C112.688 76.2734 110.422 78.5 107.688 78.5C104.914 78.5 102.688 76.2734 102.688 73.5C102.688 70.7656 104.914 68.5 107.688 68.5ZM107.688 76C109.055 76 110.188 74.9062 110.188 73.5C110.188 72.1328 109.055 71 107.688 71C106.281 71 105.188 72.1328 105.188 73.5C105.188 74.9062 106.281 76 107.688 76Z" fill="white"/>
<defs>
<linearGradient id="paint0_linear_12_3031" x1="116" y1="-9.5" x2="-42" y2="92.5" gradientUnits="userSpaceOnUse">
<stop stop-color="#790909"/>
<stop offset="0.265" stop-color="#084F84"/>
<stop offset="0.633154" stop-color="#11A264"/>
<stop offset="0.868154" stop-color="#DECB15"/>
</linearGradient>
</defs>
</svg>
