<svg width="139" height="139" viewBox="0 0 139 139" fill="none" xmlns="http://www.w3.org/2000/svg">
<circle cx="69.5" cy="69.5" r="69.5" fill="url(#paint0_linear_12_3036)"/>
<path d="M58 94C62.4516 93.2454 74.0839 92.1889 85 94" stroke="white" stroke-width="5" stroke-linecap="round"/>
<path d="M35.6875 68.8125C41 68.8125 45.375 73.1875 45.375 78.5C45.375 83.8516 41 88.1875 35.6875 88.1875C30.3359 88.1875 26 83.8516 26 78.5C26 73.1875 30.3359 68.8125 35.6875 68.8125ZM35.6875 85.6875C39.6328 85.6875 42.875 82.4844 42.875 78.5C42.875 74.5547 39.6328 71.3125 35.6875 71.3125C31.7031 71.3125 28.5 74.5547 28.5 78.5C28.5 82.4844 31.7031 85.6875 35.6875 85.6875ZM35.6875 73.5C38.4219 73.5 40.6875 75.7656 40.6875 78.5C40.6875 81.2734 38.4219 83.5 35.6875 83.5C32.9141 83.5 30.6875 81.2734 30.6875 78.5C30.6875 75.7656 32.9141 73.5 35.6875 73.5ZM35.6875 81C37.0547 81 38.1875 79.9062 38.1875 78.5C38.1875 77.1328 37.0547 76 35.6875 76C34.2812 76 33.1875 77.1328 33.1875 78.5C33.1875 79.9062 34.2812 81 35.6875 81Z" fill="white"/>
<path d="M107.688 68.8125C113 68.8125 117.375 73.1875 117.375 78.5C117.375 83.8516 113 88.1875 107.688 88.1875C102.336 88.1875 98 83.8516 98 78.5C98 73.1875 102.336 68.8125 107.688 68.8125ZM107.688 85.6875C111.633 85.6875 114.875 82.4844 114.875 78.5C114.875 74.5547 111.633 71.3125 107.688 71.3125C103.703 71.3125 100.5 74.5547 100.5 78.5C100.5 82.4844 103.703 85.6875 107.688 85.6875ZM107.688 73.5C110.422 73.5 112.688 75.7656 112.688 78.5C112.688 81.2734 110.422 83.5 107.688 83.5C104.914 83.5 102.688 81.2734 102.688 78.5C102.688 75.7656 104.914 73.5 107.688 73.5ZM107.688 81C109.055 81 110.188 79.9062 110.188 78.5C110.188 77.1328 109.055 76 107.688 76C106.281 76 105.188 77.1328 105.188 78.5C105.188 79.9062 106.281 81 107.688 81Z" fill="white"/>
<defs>
<linearGradient id="paint0_linear_12_3036" x1="177" y1="-6.83952e-08" x2="18.5" y2="124" gradientUnits="userSpaceOnUse">
<stop offset="0.105" stop-color="#084F84"/>
<stop offset="0.405" stop-color="#20C4AF"/>
<stop offset="0.7" stop-color="#11A264"/>
<stop offset="0.953154" stop-color="#063C25"/>
</linearGradient>
</defs>
</svg>
